<svg xmlns="http://www.w3.org/2000/svg" viewBox="0 0 120 150" fill="none" role="img" aria-label="Fabius beetle">
  <g stroke="currentColor" stroke-width="3" stroke-linecap="round" stroke-linejoin="round">
    <path d="M53 17 C46 8 41 5 36 3" />
    <path d="M67 17 C74 8 79 5 84 3" />
    <path d="M40 50 L17 41 L7 47" />
    <path d="M36 73 L10 73 L2 86" />
    <path d="M39 99 L15 113 L8 128" />
    <path d="M80 50 L103 41 L113 47" />
    <path d="M84 73 L110 73 L118 86" />
    <path d="M81 99 L105 113 L112 128" />
  </g>
  <ellipse cx="60" cy="20" rx="12" ry="11" fill="currentColor"/>
  <path d="M46 30 Q60 27 74 30 L82 50 Q60 46 38 50 Z" fill="currentColor"/>
  <path d="M60 47 C84 47 92 66 92 90 C92 120 78 140 60 140 C42 140 28 120 28 90 C28 66 36 47 60 47 Z" fill="currentColor"/>
  <line x1="60" y1="52" x2="60" y2="134" stroke="#fff" stroke-width="2.4" stroke-linecap="round" opacity="0.92"/>
  <g transform="translate(60,92) scale(0.40) translate(-50,-50)">
    <path d="M50 50 L61 50 L61 39 L39 39 L39 61 L72 61 L72 28 L28 28 L28 72 L83 72 L83 17 L17 17"
      stroke="#fff" stroke-width="6" stroke-linecap="square" fill="none"/>
    <circle cx="50" cy="50" r="3.4" fill="#fff"/>
  </g>
</svg>
